<?xml version="1.0" standalone="no"?><!DOCTYPE svg PUBLIC "-//W3C//DTD SVG 1.1//EN" "http://www.w3.org/Graphics/SVG/1.1/DTD/svg11.dtd"><svg t="1583386624834" class="icon" viewBox="0 0 1025 1024" version="1.1" xmlns="http://www.w3.org/2000/svg" p-id="8617" xmlns:xlink="http://www.w3.org/1999/xlink" width="128.125" height="128"><defs><style type="text/css"></style></defs><path d="M101.50811 1015.7c-41.6-11.2-78.4-46.5-93.7-89.9C1.10811 906.8 0.00811 849.3 0.00811 511.1c0-439-1.5-420 36.3-462.9 11.1-12.6 31.1-28.2 44.4-34.8L105.00811 1.6l374.1 0 374.1 0 30.4 15.5c23.5 12 35 22.3 50.8 45.3l20.5 29.7 1.7 73.4c1.9 84.7-0.9 94.6-27.1 94.6-28.3 0-33.4-12.6-33.4-82.3 0-65.3-5.4-80.3-37.5-104.1C844.10811 63.1 841.20811 63 482.20811 63c-353.9 0-362.3 0.2-379.8 10.4C91.80811 79.5 79.80811 93 73.00811 106.5l-11.6 22.6 0 381.8 0 381.8 11.5 22.7c20.3 40 30.7 43.1 156.4 46 118 2.8 118.6 2.9 118.8 31.7 0.2 26.8-12.1 29.8-122.7 29.4C162.20811 1022.3 116.60811 1019.8 101.50811 1015.7zM982.90811 1019.3c-4.2-1.5-41.2-36-82.2-76.7l-74.6-73.9L782.00811 896.4c-25.6 16.1-63 33.9-89.3 42.5-41.5 13.6-51.2 14.8-119.4 14.7-69.9-0.1-76.9-1.1-119.1-16-63.6-22.6-97.4-44.1-147.1-94-49.1-49.2-75.9-91.3-96-151-12.5-37.2-13.8-48-13.8-117.8s1.3-80.5 13.8-117.8c20.1-59.7 46.8-101.7 96-151.1 49.1-49.2 90.8-75.7 151-95.8 37.1-12.4 48.1-13.7 117.8-13.7s80.6 1.3 117.8 13.7c60.3 20.2 102 46.6 151 95.9 74.8 75.2 107.4 148.2 111.6 249.6 3.7 90.7-15 160.2-62 230.5L869.00811 824l77.5 78c50.6 51 77.5 81.8 77.5 88.8 0 5.9-6.1 15.6-13.5 21.4C996.20811 1023.4 995.20811 1023.7 982.90811 1019.3L982.90811 1019.3zM642.50811 887.2c107.4-22.5 195.4-99.9 235.8-207.4 12.9-34.3 14.4-45.2 14.8-102.4 0.3-57.3-1.1-68.4-14-105.9-26-75.7-81.7-141-151.5-177.7-48.4-25.4-76.7-33.6-128.5-37.3-62.4-4.4-109.4 4.8-164.2 32.3-54.2 27.1-93.2 61.4-126.6 111.3-37.3 55.7-49.7 99.3-49.7 174.7 0 54 1.7 66.5 14.4 103.3 27.1 78.9 84.5 144.2 159 181.1C500.90811 893.3 569.80811 902.4 642.50811 887.2L642.50811 887.2zM559.10811 820.3c-13.2-9.3-15.4-33.4-4-44.8 4.1-4.1 20.7-9.1 37-11.1 45.7-5.7 80.6-21.2 111.5-49.4 34-31.1 52.3-66.8 61.5-119.8 7.4-42.8 12.4-49.3 35.8-47.3 25.1 2.2 31.9 20.7 24.3 66.3C807.90811 717.7 730.90811 799.6 631.00811 820.8 586.50811 830.2 573.10811 830.1 559.10811 820.3zM354.20811 510.7c-14.4-13.4-14.1-20 2.1-52 24.9-49.1 96.3-111.4 128-111.6 15.4-0.1 28.8 16.8 26.8 34-1.3 11-8.4 18.9-30.6 33.5-29.9 19.7-58.2 50.7-72.9 79.5C393.60811 521.7 373.00811 528.1 354.20811 510.7z" p-id="8618"></path></svg>