<?xml version="1.0" standalone="no"?><!DOCTYPE svg PUBLIC "-//W3C//DTD SVG 1.1//EN" "http://www.w3.org/Graphics/SVG/1.1/DTD/svg11.dtd"><svg t="1583380558860" class="icon" viewBox="0 0 1098 1024" version="1.1" xmlns="http://www.w3.org/2000/svg" p-id="3569" xmlns:xlink="http://www.w3.org/1999/xlink" width="137.25" height="128"><defs><style type="text/css"></style></defs><path d="M552.783222 711.157161H119.116078a62.365078 62.365078 0 0 1-61.592125-61.592126V61.510762A61.592125 61.592125 0 0 1 119.116078-0.040682H824.61848a63.951665 63.951665 0 0 1 61.836215 67.084158v294.291568a296.569744 296.569744 0 0 0-31.93515-1.627269c-4.922488 0-8.99066 0-12.855424 0.24409V100.768622a56.140775 56.140775 0 0 0-56.01873-56.059411H158.333257a56.181456 56.181456 0 0 0-55.856002 56.059411v526.421467a55.774639 55.774639 0 0 0 55.856002 55.896684h391.642926c0.488181 8.787252 1.42386 17.899957 2.929084 27.989024z m-3.091811-61.592126H163.947335a25.914256 25.914256 0 0 1-20.829041-8.380434 43.854895 43.854895 0 0 1-7.07862-30.918108 958.420659 958.420659 0 0 1 43.366715-153.980313C206.093597 385.988167 251.413034 302.265185 315.039246 302.265185a159.472345 159.472345 0 0 1 130.181506 81.363442 327.040353 327.040353 0 0 1 37.915364 80.793897 0.650908 0.650908 0 0 1 0 0.406817c1.42386-5.20726 17.24905-50.323289 128.716964-50.323288a126.113334 126.113334 0 0 1 52.276011 11.879062 305.112906 305.112906 0 0 0-114.356317 223.301965z m140.718072-364.1014a99.792261 99.792261 0 0 1-66.595977-25.914257 86.245248 86.245248 0 0 1-28.680613-63.666893 91.127054 91.127054 0 0 1 95.357953-95.113863 94.218865 94.218865 0 0 1 95.113864 95.154545 86.448657 86.448657 0 0 1-26.687209 63.666893 97.63613 97.63613 0 0 1-68.508018 25.914256z" p-id="3570"></path><path d="M1008.418494 593.87176a23.554716 23.554716 0 0 1 0 11.106109l-20.34086 5.573396a182.823653 182.823653 0 0 1 2.562948 21.683357c0.284772 33.155602 0.488181 66.311205 0 99.466808a28.477205 28.477205 0 0 1-5.980213 16.638823 163.255745 163.255745 0 0 1-56.954409 0.976362c-13.140196-8.461798-5.044533-22.619037-9.275432-34.172646h-171.758225c-3.335901 12.204516-5.288624 32.545377-9.316114 34.172646a165.533922 165.533922 0 0 1-58.256224 0 32.545377 32.545377 0 0 1-6.427712-18.957682c-0.976361-13.95383-0.406817-28.029706-0.244091-42.0649 0.24409-26.036301 0.650908-52.072603 1.017043-78.312312l-18.957681-4.96317a21.113813 21.113813 0 0 1 0-8.868615c4.841125-14.360647 12.204516-25.426075 30.2672-23.147899 2.196813 0.284772 6.264985-4.393626 7.485436-7.526118a488.424739 488.424739 0 0 0 17.371095-49.102837 60.493719 60.493719 0 0 1 54.066007-44.424439c9.844976-1.871359 19.811998-3.091811 29.697656-4.637717a255.765978 255.765978 0 0 1 76.156181 0c17.411776 3.661355 35.026962 6.509075 52.113285 11.228155a37.467865 37.467865 0 0 1 26.321073 25.019259q10.780656 30.877426 22.619037 61.307353c1.342497 3.417265 5.736123 8.380434 8.136344 8.136344a26.23971 26.23971 0 0 1 29.697656 20.869723z m-228.956724 58.703723a18.794955 18.794955 0 0 0-6.38703-14.035194 339.122824 339.122824 0 0 0-42.349672-22.415628c-7.159983-3.132492-15.174282-2.562948-17.49314 11.024746-3.376583 19.85268-0.24409 30.958789 10.984065 34.009919a198.648842 198.648842 0 0 0 26.361755 4.068172 61.754852 61.754852 0 0 0 18.103366-2.074768 17.696549 17.696549 0 0 0 10.862019-10.577247z m-57.727362-65.985751a466.21252 466.21252 0 0 0 219.681292 0c-6.14294-21.235858-12.204516-40.071495-17.004959-59.395313a28.884022 28.884022 0 0 0-27.907661-25.426075 1323.539103 1323.539103 0 0 0-138.928076 0 23.188581 23.188581 0 0 0-12.204516 12.204516c-8.136344 23.066536-15.337009 46.865342-23.554717 72.738917z m215.61312 71.315056c12.570652-4.068172 9.92634-18.144047 9.641568-30.2672-0.24409-10.333157-5.003852-18.144047-11.960426-15.214964a310.035394 310.035394 0 0 0-50.852151 26.402437 12.204516 12.204516 0 0 0 3.742718 20.910405 141.043526 141.043526 0 0 0 22.863127 2.807038 177.331621 177.331621 0 0 0 26.565164-4.597034z" p-id="3571"></path><path d="M540.700751 1012.079849l-102.965436-103.209526H20.34086a20.34086 20.34086 0 0 1 0-40.68172h1057.72474a20.34086 20.34086 0 0 1 0 40.68172h-376.712734l-102.965435 103.209526a40.925811 40.925811 0 0 1-28.924704 11.838381 41.413992 41.413992 0 0 1-28.761976-11.879063z" p-id="3572"></path></svg>