<?xml version="1.0" standalone="no"?><!DOCTYPE svg PUBLIC "-//W3C//DTD SVG 1.1//EN" "http://www.w3.org/Graphics/SVG/1.1/DTD/svg11.dtd"><svg t="1582684026260" class="icon" viewBox="0 0 1024 1024" version="1.1" xmlns="http://www.w3.org/2000/svg" p-id="2611" xmlns:xlink="http://www.w3.org/1999/xlink" width="16" height="16"><defs><style type="text/css"></style></defs><path d="M0 0v1024h1024V0H0z m762.1632 617.8304v87.296c0 39.3728-31.9488 71.3728-71.168 71.3728h-80.8448V921.6l-345.1392-75.8272V653.312A310.3232 310.3232 0 0 1 153.6 414.3104C153.6 242.2784 293.3248 102.4 464.9984 102.4c100.352 0 197.2224 42.5472 246.4768 121.9584 8.4992 13.7216 23.1936 44.1344 30.208 70.5024 39.4752-18.6368-8.8576-29.2864-8.8576-29.2864 20.2752-4.5568 46.1312-7.2192 58.2144-6.0416 7.168 0.6656 21.1968 2.9696 30.0032 5.6832 14.4384 4.4032 27.3408 11.4176 27.3408 15.9232 0 0.4608-0.4608 11.1104-44.8 29.44-16.0256 6.656-35.9424 13.5168-59.648 20.6336-6.7584 2.048-13.824 4.096-21.248 6.144-35.1232 9.8816-77.1584 20.0704-125.9008 30.6176l-4.1984 0.9216-2.048 3.7888c-1.5872 2.9184-38.912 73.0624-3.9424 139.9808 21.9136 41.9328 66.816 72.2432 133.888 90.624 13.056 3.584 26.9824 6.7072 41.6768 9.3696l10.24 2.6624a142.08 142.08 0 0 1-10.24 2.5088z m128-95.232c-18.0224 36.5568-42.3424 60.6208-70.1952 75.4176l-11.1616 2.2528c-109.056-11.9296-178.176-44.3392-205.4144-96.256-26.1632-49.8176-4.8128-104.0384 1.8944-118.528 232.2432-50.6368 262.0416-82.3808 261.9392-104.448a22.7328 22.7328 0 0 0-6.5024-15.4624c116.9408 45.7728 29.44 257.024 29.44 257.024z" p-id="2612"></path><path d="M439.7568 530.8928a113.664 113.664 0 0 1-23.9104-69.9904c0-16.8448 3.6352-32.8704 10.1888-47.2576-88.9344-6.9632-187.0336-38.5536-224.7168-51.6096l-4.864 31.1296a260.8128 260.8128 0 0 0-1.1264 21.1456c0 6.7072 0.6656 13.312 1.0752 19.968l3.1744 21.9648a1147.904 1147.904 0 0 0 101.6832 39.3728c40.8576 13.6192 89.2928 27.2384 138.496 35.2768zM550.7072 575.1808a412.4672 412.4672 0 0 1-27.6992 0.9216c-119.1936 0-251.136-48.3328-313.1904-74.1888 16.5888 48.7424 47.0528 92.16 88.8832 125.0304l7.9872 6.2464v178.944l261.7344 57.4976v-135.0144h122.5728a29.5936 29.5936 0 0 0 29.4912-29.5424v-87.3984c-56.5248-2.4576-114.7904-22.4768-160-42.5984h-9.7792zM529.92 346.6752h4.5056a391.7312 391.7312 0 0 1 60.6208-16.1792c48.6912-8.0384 83.6096-15.5648 108.3904-22.3744-9.216-20.0192-16.9472-43.9296-22.8864-55.3984-37.7856-72.96-127.4368-108.544-215.552-108.544-117.504 0-217.4976 75.8272-254.3104 181.0944 36.5568 12.7488 151.2448 50.176 241.4592 52.1216 20.3776-19.0976 47.6672-30.72 77.7728-30.72z" p-id="2613"></path></svg>